<svg id="Capa_1" enable-background="new 0 0 512.262 512.262" height="512" viewBox="0 0 512.262 512.262" width="512" xmlns="http://www.w3.org/2000/svg"><path d="m41.894 184.171c19.221-57.225 59.576-103.54 113.632-130.412 54.056-26.873 115.342-31.087 172.564-11.866 43.762 14.699 81.599 42.221 108.927 78.748l-28.415-6.409-6.602 29.264 76.488 17.252 17.252-76.488-29.266-6.601-5.594 24.801c-30.946-41.279-73.749-72.384-123.238-89.006-64.82-21.772-134.241-16.998-195.472 13.441-61.23 30.44-106.943 82.903-128.716 147.724-16.3 48.529-17.753 100.165-4.203 149.329l28.922-7.972c-11.957-43.383-10.671-88.96 3.721-131.805z"/><path d="m503.011 188.313-28.922 7.972c11.957 43.383 10.671 88.96-3.721 131.806-19.221 57.225-59.576 103.539-113.632 130.413s-115.342 31.087-172.565 11.866c-43.761-14.699-81.599-42.222-108.927-78.748l28.415 6.409 6.602-29.265-76.488-17.252-17.252 76.488 29.266 6.601 5.593-24.801c30.946 41.279 73.749 72.383 123.239 89.007 26.768 8.991 54.313 13.455 81.749 13.455 39.002-.002 77.778-9.026 113.724-26.896 61.231-30.44 106.943-82.903 128.716-147.724 16.3-48.53 17.753-100.167 4.203-149.331z"/><path d="m152.664 414.738h206.934v-317.215h-206.934zm176.934-88.274h-146.934v-198.941h146.934zm-146.934 30h146.934v28.274h-146.934z"/><path d="m218.798 187.798h74.666v30h-74.666z"/><path d="m218.798 251.798h74.666v30h-74.666z"/></svg>